<?xml version="1.0" encoding="UTF-8" standalone="no"?>
<!-- Created with Inkscape (http://www.inkscape.org/) -->

<svg
   xmlns:dc="http://purl.org/dc/elements/1.1/"
   xmlns:cc="http://creativecommons.org/ns#"
   xmlns:rdf="http://www.w3.org/1999/02/22-rdf-syntax-ns#"
   xmlns:svg="http://www.w3.org/2000/svg"
   xmlns="http://www.w3.org/2000/svg"
   xmlns:sodipodi="http://sodipodi.sourceforge.net/DTD/sodipodi-0.dtd"
   xmlns:inkscape="http://www.inkscape.org/namespaces/inkscape"
   id="svg6006"
   version="1.1"
   inkscape:version="0.91 r13725"
   width="187.5"
   height="245"
   viewBox="0 0 187.5 245"
   sodipodi:docname="svc.svg">
  <metadata
     id="metadata6012">
    <rdf:RDF>
      <cc:Work
         rdf:about="">
        <dc:format>image/svg+xml</dc:format>
        <dc:type
           rdf:resource="http://purl.org/dc/dcmitype/StillImage" />
        <dc:title></dc:title>
      </cc:Work>
    </rdf:RDF>
  </metadata>
  <defs
     id="defs6010" />
  <sodipodi:namedview
     pagecolor="#ffffff"
     bordercolor="#666666"
     borderopacity="1"
     objecttolerance="10"
     gridtolerance="10"
     guidetolerance="10"
     inkscape:pageopacity="0"
     inkscape:pageshadow="2"
     inkscape:window-width="1920"
     inkscape:window-height="1017"
     id="namedview6008"
     showgrid="false"
     inkscape:zoom="1.9265306"
     inkscape:cx="-35.379344"
     inkscape:cy="185.73785"
     inkscape:window-x="-8"
     inkscape:window-y="-8"
     inkscape:window-maximized="1"
     inkscape:current-layer="svg6006" />
  <path
     style="fill:#000000"
     d="M 38.437504,206.50223 3.75e-6,168.05685 l 0,-17.47637 0,-17.47638 38.44494025,-38.429925 38.44494,-38.429939 16.25,0 16.250006,0 39.05505,39.069825 39.05506,39.069819 0,16.87524 0,16.87523 -38.44493,38.42994 -38.44495,38.42994 -16.867556,-0.0233 -16.86756,-0.0233 -38.4375,-38.44537 z M 140.00215,196.86708 185.61645,151.23993 139.68323,105.30671 93.750004,59.373488 47.816774,105.30671 1.8835538,151.23993 47.497854,196.86708 c 25.08787,25.09494 45.90133,45.62715 46.25215,45.62715 0.35081,0 21.164276,-20.53221 46.252146,-45.62715 z m -80.002146,4.37715 c 0,-1.375 0.42187,-2.49953 0.9375,-2.49895 0.51562,5.9e-4 0.77642,-12.99526 0.57955,-28.87965 -0.25445,-20.52939 0.0609,-29.3854 1.09055,-30.62605 1.01796,-1.22656 1.03943,-1.74535 0.0722,-1.74535 -0.98899,0 -0.97559,-0.87936 0.0476,-3.125 1.64929,-3.61979 3.50469,-4.10808 3.56231,-0.9375 0.0368,2.02625 0.16891,2.01702 1.79183,-0.12518 1.95257,-2.5773 4.37599,-1.79658 4.49765,1.44895 0.0548,1.4634 0.44328,1.20453 1.2625,-0.84145 0.99207,-2.47766 1.49169,-2.69922 3.09192,-1.37115 1.04976,0.87123 1.82311,2.48232 1.71856,3.58019 -0.68556,7.19884 0.29075,23.87114 1.39787,23.87114 0.84973,0 1.24895,-6.60334 1.15248,-19.0625 -0.17436,-22.51958 0.64952,-26.32718 4.59805,-21.25 1.61198,2.07274 1.77549,2.06296 3.11678,-0.18647 1.36395,-2.28745 1.49501,-2.26862 3.59588,0.51657 l 2.18034,2.89054 1.51251,-2.82614 1.5125,-2.82614 1.948612,2.78202 1.948604,2.78203 1.47966,-2.76476 1.47965,-2.76476 2.27914,3.47841 c 1.25352,1.91312 1.77099,3.64677 1.14993,3.85255 -1.45064,0.48066 -0.73749,35.37865 0.72297,35.37865 0.60247,0 1.27595,-5.06379 1.49661,-11.25288 0.22067,-6.18907 -0.0254,-11.25157 -0.54688,-11.25 -0.78765,0.002 -0.18846,-1.47428 2.48039,-6.11275 0.15526,-0.26985 1.13963,0.2209 2.1875,1.09055 1.30289,1.08132 1.9052,1.13763 1.9052,0.17813 0,-0.77168 0.84375,-1.40305 1.875,-1.40305 1.03125,0 1.875,0.95126 1.875,2.11391 0,1.83964 0.2321,1.79909 1.78885,-0.3125 1.73849,-2.3581 1.82235,-2.33842 2.97824,0.69859 0.65416,1.71875 0.94098,3.54687 0.63738,4.0625 -0.3036,0.51562 0.0631,0.9375 0.81505,0.9375 0.96131,0 1.26146,8.90424 1.01127,30.00099 -0.19569,16.50055 0.0661,30.00055 0.58171,30 0.51563,-5.4e-4 0.9375,1.12401 0.9375,2.49901 0,2.4394 -0.83333,2.5 -34.375006,2.5 -33.54167,0 -34.375,-0.0606 -34.375,-2.5 z m 47.499996,-10 c 0,-1.375 -0.5625,-2.5 -1.25,-2.5 -0.6875,0 -1.25,1.125 -1.25,2.5 0,1.375 0.5625,2.5 1.25,2.5 0.6875,0 1.25,-1.125 1.25,-2.5 z m -23.749996,-0.625 c 0,-1.03125 -0.5625,-1.875 -1.25,-1.875 -0.6875,0 -1.25,0.84375 -1.25,1.875 0,1.03125 0.5625,1.875 1.25,1.875 0.6875,0 1.25,-0.84375 1.25,-1.875 z m 17.500006,-5.60119 c 0,-7.03814 -0.19339,-7.52471 -3.300546,-8.30456 -1.8153,-0.45561 -4.76842,-0.31459 -6.5625,0.31339 -2.93407,1.027 -3.29964,1.86177 -3.63684,8.30456 l -0.37488,7.1628 6.93738,0 6.937386,0 0,-7.47619 z m -17.500006,-2.52381 c 0,-1.375 -0.5625,-2.5 -1.25,-2.5 -0.6875,0 -1.25,1.125 -1.25,2.5 0,1.375 0.5625,2.5 1.25,2.5 0.6875,0 1.25,-1.125 1.25,-2.5 z M 107.5,182.42053 c 0,-1.41558 -0.5625,-2.22613 -1.25,-1.80123 -0.6875,0.4249 -1.25,1.5831 -1.25,2.57378 0,0.99067 0.5625,1.80122 1.25,1.80122 0.6875,0 1.25,-1.1582 1.25,-2.57377 z m -20.587126,-10.9301 c -0.83992,-0.83991 -4.41287,2.27777 -4.41287,3.85059 0,0.70987 1.12845,0.26945 2.50766,-0.97873 1.37922,-1.24817 2.23656,-2.54051 1.90521,-2.87186 z M 106.25,175.14728 c 0,-1.56951 -3.2126,-4.02379 -4.10236,-3.13401 -0.82071,0.8207 1.66576,4.10738 3.16486,4.18341 0.51563,0.0261 0.9375,-0.44608 0.9375,-1.0494 z m -9.663706,-4.72298 c -0.84629,-0.3424 -2.53379,-0.36323 -3.75,-0.0464 -1.21621,0.31692 -0.52379,0.59707 1.53871,0.62255 2.0625,0.0255 3.05758,-0.23383 2.21129,-0.57624 z M 122.5,148.74423 c 0,-0.6875 -0.5625,-1.25 -1.25,-1.25 -0.6875,0 -1.25,0.5625 -1.25,1.25 0,0.6875 0.5625,1.25 1.25,1.25 0.6875,0 1.25,-0.5625 1.25,-1.25 z m -32.922146,-10.3125 c -0.34677,-0.85938 -0.63048,-0.15625 -0.63048,1.5625 0,1.71875 0.28371,2.42187 0.63048,1.5625 0.34676,-0.85938 0.34676,-2.26563 0,-3.125 z m 10.000002,0 c -0.34677,-0.85938 -0.63048,-0.15625 -0.63048,1.5625 0,1.71875 0.28371,2.42187 0.63048,1.5625 0.34676,-0.85938 0.34676,-2.26563 0,-3.125 z M 88.750004,125.693 c 0,-0.30317 -0.5625,-0.89887 -1.25,-1.32377 -0.6875,-0.4249 -1.25,-0.17685 -1.25,0.55123 0,0.72807 0.5625,1.32377 1.25,1.32377 0.6875,0 1.25,-0.24805 1.25,-0.55123 z m 7.16146,-0.20398 c -0.41537,-0.41537 -1.49349,-0.45977 -2.39584,-0.0986 -0.99716,0.39903 -0.70097,0.69523 0.75521,0.7552 1.31771,0.0542 2.05599,-0.24115 1.64063,-0.65652 z m 6.588546,0.20398 c 0,-0.30317 -0.5625,-0.89887 -1.25,-1.32377 -0.6875,-0.4249 -1.25,-0.17685 -1.25,0.55123 0,0.72807 0.5625,1.32377 1.25,1.32377 0.6875,0 1.25,-0.24805 1.25,-0.55123 z m -78.750006,34.30123 0,-12.5 4.375,0 c 5.04546,0 5.55395,-1.70894 1.72212,-5.78774 -3.31933,-3.53325 -2.41459,-8.2914 2.1446,-11.27869 7.61437,-4.98912 15.04899,4.5014 9.45427,12.06868 -1.4828,2.00559 -2.69599,3.95055 -2.69599,4.32214 0,0.37158 2.25,0.67561 5,0.67561 l 5,0 0,12.5 0,12.5 -12.5,0 -12.5,0 0,-12.5 z m 10,5.625 c 0,-1.04166 -1.11111,-1.875 -2.5,-1.875 -3.07924,0 -3.30707,2.10577 -0.3125,2.88834 1.20312,0.31441 2.32812,0.63691 2.5,0.71666 0.17187,0.0797 0.3125,-0.69875 0.3125,-1.73 z m 10,-0.77079 c 0,-0.60731 -1.125,-1.10421 -2.5,-1.10421 -1.375,0 -2.5,0.79109 -2.5,1.75797 0,1.14257 0.87517,1.52912 2.5,1.10422 1.375,-0.35958 2.5,-1.15067 2.5,-1.75798 z m -10,-9.22921 c 0,-1.04166 -1.11111,-1.875 -2.5,-1.875 -1.38889,0 -2.5,0.83334 -2.5,1.875 0,1.04166 1.11111,1.875 2.5,1.875 1.38889,0 2.5,-0.83334 2.5,-1.875 z m 10,0 c 0,-1.03125 -0.84375,-1.875 -1.875,-1.875 -1.03125,0 -1.875,0.84375 -1.875,1.875 0,1.03125 0.84375,1.875 1.875,1.875 1.03125,0 1.875,-0.84375 1.875,-1.875 z m -5.71254,-19.51664 c -1.06513,-1.72342 -4.28746,-1.30382 -4.28746,0.5583 0,0.91668 0.37012,2.03679 0.82249,2.48916 1.13041,1.13042 4.31566,-1.67102 3.46497,-3.04746 z m 102.361626,27.16063 c -1.9485,-1.63955 -4.27354,-5.002 -5.16674,-7.47212 -1.42682,-3.94581 -1.33235,-5.15045 0.77813,-9.92151 4.46436,-10.09244 16.42457,-12.38261 24.1776,-4.62959 6.09359,6.09359 4.63352,18.60542 -2.67495,22.92264 -5.23271,3.09104 -12.84724,2.69086 -17.11404,-0.89942 z m 11.8545,-11.56017 c 0.2096,-1.4619 -0.44707,-2.95747 -1.4711,-3.35042 -2.37961,-0.91315 -5.03966,2.26692 -4.05111,4.84306 1.06567,2.77711 5.06505,1.69609 5.52221,-1.49264 z M 81.868624,106.23718 c -2.21541,-2.44799 -2.15373,-2.60837 2.61877,-6.809043 l 4.88761,-4.302012 -4.08444,-3.899807 c -2.29784,-2.193967 -3.71633,-4.546588 -3.24288,-5.378444 2.71603,-4.772086 3.30101,-4.77022 8.24145,0.02629 l 4.88745,4.745075 3.822002,-4.736173 c 3.637474,-4.507509 3.934964,-4.633944 6.161704,-2.618765 3.10515,2.810115 2.97997,3.58272 -1.30726,8.068906 l -3.64698,3.816212 4.58448,4.230741 4.58447,4.23075 -2.80031,2.83225 -2.80031,2.83226 -4.722704,-4.61161 -4.722712,-4.6116 -3.46777,4.34601 c -3.97919,4.98696 -5.80566,5.36047 -8.99257,1.83897 z M 71.250004,38.397179 c -0.34375,-0.3302 -3.4375,-0.9158 -6.875,-1.30134 -9.78583,-1.09755 -20.62376,-3.59234 -19.99881,-4.60353 0.54172,-0.87652 2.8509,-1.27252 19.99881,-3.42962 9.67028,-1.21646 49.198016,-1.22243 58.124996,-0.009 3.78125,0.51407 9.82813,1.28201 13.4375,1.70653 3.60938,0.42452 6.5625,1.26953 6.5625,1.87782 0,0.60826 -0.17793,1.10595 -0.39542,1.10595 -0.80831,0 -14.09108,2.54425 -17.10458,3.2763 -3.88818,0.94453 -52.893216,2.19964 -53.749996,1.37664 z m -29.14929,-14.46187 c -0.42492,-2.12462 -1.91517,-5.00553 -3.31165,-6.40201 -3.23186,-3.23186 -3.24864,-8.0794902 -0.0391,-11.2890602 5.45242,-5.45241994 15.81253,-1.10283 14.74226,6.1893902 l -0.50517,3.44196 8.81895,-0.60218 c 4.85043,-0.3312 8.98064,-0.73806 9.17826,-0.90414 0.19761,-0.16608 -0.32196,-1.79716 -1.1546,-3.62462 -3.29523,-7.2322402 8.04695,-14.1907202 14.14108,-8.6756102 1.85069,1.67486 2.37196,3.4562 2.03754,6.96292 l -0.44939,4.7122802 9.01695,0 9.016946,0 -0.68713,-4.2342902 c -1.34219,-8.2709399 8.54783,-12.82689 14.37641,-6.62265 3.00133,3.19478 3.51425,7.06058 1.23873,9.3361002 -2.12303,2.12303 -1.40779,2.37868 8.56048,3.05984 7.222,0.49349 8.82973,0.28217 8.30268,-1.0913 -1.25632,-3.27393 0.93249,-7.9178902 4.63412,-9.8320702 3.31906,-1.71635 4.12996,-1.72398 7.33041,-0.069 5.74325,2.96996 6.91999,8.9348302 2.61241,13.2424002 -1.39649,1.39648 -2.88509,4.26922 -3.30802,6.38385 -0.72565,3.62826 -1.02264,3.80253 -5.27344,3.09434 -2.47746,-0.41275 -13.84944,-1.38104 -25.27107,-2.15174 -19.692436,-1.32881 -45.375026,-0.50254 -66.859256,2.15101 -6.34875,0.78415 -6.37913,0.77108 -7.14844,-3.07545 z"
     id="path6754"
     inkscape:connector-curvature="0" />
</svg>
